<svg id="Layer_1" data-name="Layer 1" xmlns="http://www.w3.org/2000/svg" viewBox="0 0 36 36"><defs><style>.cls-1{fill:#231f20;}</style></defs><title>athletic</title><path class="cls-1" d="M30.94,15.77h-.58V14.05a2.18,2.18,0,0,0-2.11-2.25,1.9,1.9,0,0,0-.63.11,2.79,2.79,0,1,0-5.57.17v3.69H14V12.08a2.91,2.91,0,0,0-2.79-3,2.89,2.89,0,0,0-2.78,2.84,1.9,1.9,0,0,0-.63-.11,2.18,2.18,0,0,0-2.11,2.25v1.72H5.07a2.24,2.24,0,0,0,0,4.46h.57V22A2.18,2.18,0,0,0,7.75,24.2a1.9,1.9,0,0,0,.63-.11,2.89,2.89,0,0,0,2.78,2.84,2.91,2.91,0,0,0,2.79-3V20.23h8.1v3.69a2.79,2.79,0,1,0,5.57.17,1.9,1.9,0,0,0,.63.11A2.18,2.18,0,0,0,30.36,22V20.23h.58a2.24,2.24,0,0,0,0-4.46Zm-25.3,3H5.07a.76.76,0,0,1,0-1.48h.57ZM8.37,22a.71.71,0,0,1-.62.77A.71.71,0,0,1,7.13,22v-7.9a.71.71,0,0,1,.62-.77.71.71,0,0,1,.62.77Zm4.09,2a1.43,1.43,0,0,1-1.3,1.52,1.42,1.42,0,0,1-1.3-1.52V12.08a1.42,1.42,0,0,1,1.3-1.52,1.43,1.43,0,0,1,1.3,1.52Zm9.59-5.18H14V17.26h8.1Zm4.1-4.69v9.87a1.32,1.32,0,1,1-2.61,0V12.08a1.32,1.32,0,1,1,2.61,0ZM28.88,22a.64.64,0,1,1-1.25,0v-7.9a.64.64,0,1,1,1.25,0Zm2.06-3.21h-.58V17.26h.58a.77.77,0,0,1,0,1.48Z"/></svg>