<svg id="Layer_1" data-name="Layer 1" xmlns="http://www.w3.org/2000/svg" viewBox="0 0 36 36"><defs><style>.cls-1{fill:#231f20;}</style></defs><title>birthday</title><path class="cls-1" d="M32.25,28.91H31.06V24.27a4.72,4.72,0,0,0,.71-.11.75.75,0,0,0,.59-.73V21.62a4.46,4.46,0,0,0-4.45-4.45h-1V13.52a2.28,2.28,0,1,0-4.55,0v3.65H20.28V12a2.28,2.28,0,0,0-4.56,0v5.21H13.65V13.52a2.28,2.28,0,1,0-4.55,0v3.65H8.16a4.45,4.45,0,0,0-4.45,4.45v1.57a.74.74,0,0,0,1,.7L5,23.77v5.14H3.75a.75.75,0,0,0-.75.75A3.34,3.34,0,0,0,6.33,33H29.67A3.34,3.34,0,0,0,33,29.66.75.75,0,0,0,32.25,28.91Zm-8.4-15.39a.78.78,0,1,1,1.55,0v3.65H23.85ZM17.22,12a.78.78,0,0,1,1.56,0v5.21H17.22ZM10.6,13.52a.78.78,0,1,1,1.55,0v3.65H10.6Zm-5.39,8.1a3,3,0,0,1,3-2.95H27.91a3,3,0,0,1,2.95,2.95v1.17A6.08,6.08,0,0,1,27.4,22a6.9,6.9,0,0,0-2.76-.82,8.64,8.64,0,0,0-4.26,1.17,7.27,7.27,0,0,1-4.09,1,13.64,13.64,0,0,1-4.77-1.29,17.28,17.28,0,0,0-2.34-.86,3.72,3.72,0,0,0-1-.13,6.79,6.79,0,0,0-3,.9ZM6.5,23a3.5,3.5,0,0,1,2.29-.37,15.63,15.63,0,0,1,2.14.79,15.09,15.09,0,0,0,5.25,1.41c.21,0,.42,0,.62,0A9.11,9.11,0,0,0,21,23.71a7.36,7.36,0,0,1,3.58-1,5.42,5.42,0,0,1,2.16.68,9.15,9.15,0,0,0,2.79.91v4.63H6.5Zm23.17,8.45H6.33a1.85,1.85,0,0,1-1.67-1.08H31.34A1.85,1.85,0,0,1,29.67,31.49Z"/><path class="cls-1" d="M18,9.09a2.25,2.25,0,0,0,2.25-2.25c0-.94-1.14-2.77-1.62-3.51a.79.79,0,0,0-1.26,0c-.48.74-1.61,2.57-1.61,3.51A2.24,2.24,0,0,0,18,9.09Zm0-3.91a6.27,6.27,0,0,1,.75,1.66.75.75,0,0,1-.75.75.74.74,0,0,1-.74-.74A5.7,5.7,0,0,1,18,5.18Z"/><path class="cls-1" d="M24.63,10.63a2.24,2.24,0,0,0,2.24-2.24c0-1-1.13-2.78-1.62-3.52a.74.74,0,0,0-1.25,0c-.49.74-1.62,2.57-1.62,3.52A2.24,2.24,0,0,0,24.63,10.63Zm0-3.91a6.48,6.48,0,0,1,.74,1.67.75.75,0,0,1-1.49,0A6,6,0,0,1,24.63,6.72Z"/><path class="cls-1" d="M11.38,10.63a2.24,2.24,0,0,0,2.24-2.24c0-1-1.13-2.78-1.62-3.52a.78.78,0,0,0-1.25,0c-.49.74-1.62,2.57-1.62,3.52A2.24,2.24,0,0,0,11.38,10.63Zm0-3.91a6.48,6.48,0,0,1,.74,1.67.75.75,0,0,1-1.49,0A6.28,6.28,0,0,1,11.38,6.72Z"/></svg>