<svg id="Layer_1" data-name="Layer 1" xmlns="http://www.w3.org/2000/svg" viewBox="0 0 36 36"><defs><style>.cls-1{fill:#231f20;}</style></defs><title>crimpy</title><path class="cls-1" d="M29.27,12.76A3.86,3.86,0,0,0,27,13.5a3.65,3.65,0,0,0-3.66-2.85,3.89,3.89,0,0,0-2.27.73,3.65,3.65,0,0,0-3.68-2.94,3.7,3.7,0,0,0-3.51,2.34,3.84,3.84,0,0,0-2.43-.85,3.59,3.59,0,0,0-3.73,3.44v6.87C4.91,20.74,3,22.62,3,25.09V26.8a.76.76,0,0,0,.76.76H15.33a3.27,3.27,0,0,0,2-.69h.06a3.84,3.84,0,0,0,3-1.39,3.87,3.87,0,0,0,5.94,0,3.8,3.8,0,0,0,3,1.39A3.6,3.6,0,0,0,33,23.43V16.2A3.59,3.59,0,0,0,29.27,12.76ZM11.44,11.44a2.09,2.09,0,0,1,2.21,1.93V20.1H9.23V13.37A2.09,2.09,0,0,1,11.44,11.44ZM4.52,26v-.95c0-2.28,2.36-3.47,4.69-3.47h6.12a2.09,2.09,0,0,1,1.93,2.21A2.09,2.09,0,0,1,15.33,26ZM19.6,14.1v9.33a1.85,1.85,0,0,1-1,1.58,3.79,3.79,0,0,0,.2-1.18,3.6,3.6,0,0,0-3.45-3.73h-.16V11.89A2.08,2.08,0,0,1,17.38,10a2.09,2.09,0,0,1,2.22,1.93Zm5.94,2.1v7.23a2.09,2.09,0,0,1-2.21,1.93,2.1,2.1,0,0,1-2.22-1.93V14.1a2.09,2.09,0,0,1,2.22-1.93,2.08,2.08,0,0,1,2.21,1.93Zm5.94,7.23a2.23,2.23,0,0,1-4.42,0V16.2a2.23,2.23,0,0,1,4.42,0Z"/></svg>