<svg id="Layer_1" data-name="Layer 1" xmlns="http://www.w3.org/2000/svg" viewBox="0 0 36 36"><defs><style>.cls-1{fill:#231f20;}</style></defs><title>cruxy</title><path class="cls-1" d="M13.89,31.44a6.37,6.37,0,0,1-4.51-1.86L5.2,25.4h0a6.39,6.39,0,0,1,9-9l.5.5L26.38,5.21a2.28,2.28,0,0,1,3.19,0,2.28,2.28,0,0,1,0,3.19l-.1.09L32,11a2.25,2.25,0,0,1-3.19,3.18l-2.53-2.53-.48.47,2.54,2.54a2.25,2.25,0,0,1-1.59,3.84h0a2.25,2.25,0,0,1-1.59-.66l-2.54-2.54-4.72,4.72.5.5a6.38,6.38,0,0,1-4.52,10.89Zm-7.63-7.1,4.18,4.18a4.89,4.89,0,0,0,6.91-6.91l-1-1a.75.75,0,0,1,0-1.06l5.78-5.78a.75.75,0,0,1,1.06,0l3.07,3.07a.75.75,0,0,0,.53.22h0a.75.75,0,0,0,.53-1.28l-3.07-3.07a.75.75,0,0,1,0-1.06l1.54-1.53a.74.74,0,0,1,1.06,0l3.06,3.06A.75.75,0,1,0,31,12.09L27.88,9a.74.74,0,0,1,0-1.06l.62-.62a.73.73,0,0,0,.22-.53.71.71,0,0,0-.22-.53.74.74,0,0,0-1.06,0L15.26,18.46a.75.75,0,0,1-1.06,0l-1-1a5,5,0,0,0-6.91,0,4.9,4.9,0,0,0,0,6.91Zm7.63,4.1a3.41,3.41,0,0,1-2.39-1L7.33,23.28a3.39,3.39,0,0,1,0-4.79,3.46,3.46,0,0,1,4.78,0l4.18,4.18a3.39,3.39,0,0,1,0,4.79A3.42,3.42,0,0,1,13.89,28.44ZM9.72,19a1.89,1.89,0,0,0-1.33,3.22l4.17,4.17a1.88,1.88,0,1,0,2.67-2.66l-4.18-4.18h0A1.88,1.88,0,0,0,9.72,19Z"/></svg>