<svg id="Layer_1" data-name="Layer 1" xmlns="http://www.w3.org/2000/svg" viewBox="0 0 36 36"><defs><style>.cls-1{fill:#231f20;}</style></defs><title>edit</title><path class="cls-1" d="M24.84,33H3.75A.75.75,0,0,1,3,32.23V6.56a.76.76,0,0,1,.75-.75H20.94a.75.75,0,0,1,0,1.5H4.5V31.48H24.09V19.9a.75.75,0,0,1,1.5,0V32.23A.75.75,0,0,1,24.84,33Z"/><path class="cls-1" d="M7.63,29.44A1.07,1.07,0,0,1,6.76,29a1.18,1.18,0,0,1-.14-1.09l2.05-6.51a4,4,0,0,1,.41-.85.75.75,0,0,1,.55-.35.73.73,0,0,1,.62.21l5.32,5.32a.74.74,0,0,1,.21.62.79.79,0,0,1-.35.55,4.06,4.06,0,0,1-.86.4l-6.5,2.05A1.39,1.39,0,0,1,7.63,29.44ZM10,22.28,8.25,27.74,13.72,26Z"/><path class="cls-1" d="M30.76,11.45a.74.74,0,0,1-.53-.22L24.77,5.77a.75.75,0,0,1,0-1.06L26,3.45a1.57,1.57,0,0,1,2.15,0l4.38,4.37a1.53,1.53,0,0,1,0,2.15l-1.27,1.26A.73.73,0,0,1,30.76,11.45Zm-4.39-6.2,4.39,4.39.74-.73-4.38-4.4Z"/><path class="cls-1" d="M27.54,14.67a.74.74,0,0,1-.53-.22L21.54,9a.75.75,0,0,1,0-1.06l1.62-1.61a.75.75,0,0,1,1.06,0l5.46,5.46a.75.75,0,0,1,0,1.06l-1.61,1.61A.74.74,0,0,1,27.54,14.67Zm-4.4-6.21,4.4,4.4.55-.55-4.4-4.4Z"/><path class="cls-1" d="M16.72,25.49a.74.74,0,0,1-.53-.22l-5.47-5.46a.75.75,0,0,1,0-1.06l9.21-9.21a.75.75,0,0,1,1.06,0L26.46,15a.74.74,0,0,1,0,1l-9.21,9.21A.74.74,0,0,1,16.72,25.49Zm-4.41-6.21,4.41,4.4,8.15-8.15-4.41-4.4Z"/></svg>