<svg id="Layer_1" data-name="Layer 1" xmlns="http://www.w3.org/2000/svg" viewBox="0 0 36 36"><defs><style>.cls-1{fill:#231f20;}</style></defs><title>endurance</title><path class="cls-1" d="M29.35,24.59a2.57,2.57,0,0,0-2.61,1.34L23.1,24.84a10.14,10.14,0,0,0-2.8-.41h-.21l.59-1a3.66,3.66,0,0,1,3.16-1.82H27a.75.75,0,0,0,.74-.65l.49-3.75a.74.74,0,0,0-.64-.84,2.58,2.58,0,0,0-2.67,1.47l-3.15-.29a5.15,5.15,0,0,0-4.48,1.88L16,21l-.36-1.22a11.58,11.58,0,0,0,3.24-3.67A11.94,11.94,0,0,0,20,10.31a1.58,1.58,0,0,0-.43-1.06,1.44,1.44,0,0,0-1-.42h0A1.59,1.59,0,0,0,17,10.39c0,.16,0,3.9-3.09,4.91a6.14,6.14,0,0,1-1.21.26,3.42,3.42,0,0,0,.79-2.18,3.48,3.48,0,1,0-4.83,3.21c-2.87,1.29-5.35,3.77-5.6,5.8C2.72,24.91,4.3,27,7.37,28.18a1.63,1.63,0,0,0,2.07-.62,1.37,1.37,0,0,0,.13-1.08,1.88,1.88,0,0,0-.87-1.06c-1.37-.76-2.18-1.6-2.14-2,0-.1.21-.33.81-.57l2.55,3.4-.05.14a8.81,8.81,0,0,0-.43,2.7v2A1.9,1.9,0,0,0,11.34,33h1.35a1.89,1.89,0,0,0,1.89-1.89V29.5a8.83,8.83,0,0,0,3.48.06l2.38-.45A8.15,8.15,0,0,1,23,29.05l5.65.77h.1a.77.77,0,0,0,.75-.66L30,25.43A.74.74,0,0,0,29.35,24.59ZM8,13.38a2,2,0,1,1,2,2A2,2,0,0,1,8,13.38ZM13.08,29v2.1a.39.39,0,0,1-.39.39H11.34a.4.4,0,0,1-.4-.39v-2a6.71,6.71,0,0,1,.16-1.48.31.31,0,0,0,.09.07,3.72,3.72,0,0,0,.37.3,8.54,8.54,0,0,0,.78.56c.1.06.18.14.28.19l.28.13Zm15-.78-4.91-.67a10.86,10.86,0,0,0-1.28-.08,9.34,9.34,0,0,0-1.75.16l-2.38.45a6.78,6.78,0,0,1-4.13-.48c-.15-.08-.31-.15-.45-.24a7.62,7.62,0,0,1-.8-.56l-.27-.25a6.37,6.37,0,0,1-.79-.85L8.24,21.56a.76.76,0,0,0-.81-.27c-1.47.44-2.26,1.12-2.36,2C4.91,24.8,6.82,26.09,8,26.73a.91.91,0,0,0,.13.08.54.54,0,0,1-.2,0c-1.39-.52-3.68-1.76-3.37-4.2.19-1.53,2.84-4.13,5.86-5a8.92,8.92,0,0,1,2-.42,9.07,9.07,0,0,0,1.92-.39c4.13-1.36,4.14-6.14,4.13-6.26a10.39,10.39,0,0,1-.89,4.89,10.19,10.19,0,0,1-3.22,3.46.76.76,0,0,0-.29.83l.9,3.1a.75.75,0,0,0,.57.52.75.75,0,0,0,.74-.26l2.15-2.64A3.66,3.66,0,0,1,21.61,19l3.75.34a.73.73,0,0,0,.81-.62,1.06,1.06,0,0,1,.42-.69l-.27,2H23.84a5.2,5.2,0,0,0-4.46,2.56l-1.25,2.15a.75.75,0,0,0,.65,1.12h1.53a9.54,9.54,0,0,1,2.36.34L27,27.57a.7.7,0,0,0,.61-.08A.73.73,0,0,0,28,27a1.11,1.11,0,0,1,.42-.7Z"/><path class="cls-1" d="M23.69,13.21a.72.72,0,0,0,.53-.23L28,9.15A.75.75,0,0,0,26.92,8.1l-3.23,3.29L21.84,9.5a.75.75,0,0,0-1.07,1.06L23.15,13A.74.74,0,0,0,23.69,13.21Z"/><path class="cls-1" d="M23.69,3a9.39,9.39,0,0,0-9.3,9.46.75.75,0,0,0,1.5,0A7.88,7.88,0,0,1,23,4.57a.76.76,0,0,0-.06.27V6.49a.75.75,0,0,0,1.5,0V4.84a.76.76,0,0,0-.05-.27,7.85,7.85,0,0,1,7,7.19.7.7,0,0,0-.25,0H29.55a.75.75,0,0,0,0,1.5h1.63a.92.92,0,0,0,.25-.05,7.94,7.94,0,0,1-2.05,4.75.75.75,0,0,0,.55,1.26.75.75,0,0,0,.55-.24A9.53,9.53,0,0,0,33,12.46,9.4,9.4,0,0,0,23.69,3Z"/></svg>