<svg id="Layer_1" data-name="Layer 1" xmlns="http://www.w3.org/2000/svg" viewBox="0 0 36 36"><defs><style>.cls-1{fill:#231f20;}</style></defs><title>gender_combined</title><path class="cls-1" d="M31.22,3.5a0,0,0,0,1,0,0,.72.72,0,0,0-.41-.41h0a.71.71,0,0,0-.26,0H24.13a.75.75,0,0,0,0,1.5H28.7L24.08,9.13a6.78,6.78,0,0,0-8.92.4.75.75,0,0,0,1.05,1.08,5.27,5.27,0,1,1-.06,7.51,5.22,5.22,0,0,1-1.54-3.84.75.75,0,0,0-.74-.77.73.73,0,0,0-.77.74,6.76,6.76,0,1,0,12-4.06l4.62-4.62v4.57a.76.76,0,0,0,1.51,0V3.75A.7.7,0,0,0,31.22,3.5ZM16,27H12.26V23.9a6.68,6.68,0,0,0,3.94-1.82.75.75,0,0,0-1-1.09,5.27,5.27,0,1,1,1.61-3.79v.11a.76.76,0,0,0,1.51.05V17.2a6.78,6.78,0,1,0-7.53,6.7V27H7a.76.76,0,0,0,0,1.51h3.76v3.76a.76.76,0,0,0,1.51,0V28.49H16A.76.76,0,0,0,16,27Z"/></svg>