<svg id="Layer_1" data-name="Layer 1" xmlns="http://www.w3.org/2000/svg" viewBox="0 0 36 36"><defs><style>.cls-1{fill:#231f20;}</style></defs><title>gym</title><path class="cls-1" d="M19.52,30.87a17.34,17.34,0,0,1-13.3-6.45A14.49,14.49,0,0,1,3.38,12C3.9,9.71,5.09,6.74,7.79,5.53c2.54-1.14,4.88.36,6.76,1.56l.3.2,2,1.27a57.22,57.22,0,0,0,7.53,4.37c.53.25,1.1.48,1.69.72,2.12.85,4.52,1.83,6,3.65s1.3,3.79-.25,6.55A14.41,14.41,0,0,1,30,26.3a13.61,13.61,0,0,1-7,4.17A15,15,0,0,1,19.52,30.87ZM9.66,6.63A3,3,0,0,0,8.4,6.9c-2.13.95-3.11,3.47-3.55,5.42a13,13,0,0,0,.56,7.78,13.16,13.16,0,0,0,2,3.38A15.47,15.47,0,0,0,22.64,29a12.14,12.14,0,0,0,6.27-3.7,13.08,13.08,0,0,0,1.55-2.2c1.58-2.8,1-4.07.4-4.87h0c-1.23-1.52-3.35-2.37-5.39-3.2-.61-.25-1.2-.49-1.75-.74A59.31,59.31,0,0,1,16,9.81L14,8.55l-.3-.19C12.41,7.51,11,6.63,9.66,6.63Z"/><path class="cls-1" d="M22.12,27.57a.75.75,0,0,1-.18-1.48,9,9,0,0,0,4.7-2.76,9.64,9.64,0,0,0,1.2-1.69,3.56,3.56,0,0,0,.63-1.6.75.75,0,0,1,1.5-.1,4.82,4.82,0,0,1-.82,2.44,11.08,11.08,0,0,1-1.38,1.94,10.53,10.53,0,0,1-5.48,3.23Z"/><path class="cls-1" d="M16.34,25.23a5.43,5.43,0,0,1-2.68-.71,5.48,5.48,0,1,1,7.47-2.1h0a5.47,5.47,0,0,1-3.3,2.6A5.42,5.42,0,0,1,16.34,25.23Zm0-9.47a4,4,0,0,0-2,7.45,4,4,0,0,0,5.42-1.52,4,4,0,0,0-1.53-5.42A3.88,3.88,0,0,0,16.35,15.76Z"/><path class="cls-1" d="M17.64,22.78H15a.76.76,0,0,1-.65-.38l-1.31-2.26a.77.77,0,0,1,0-.75l1.31-2.27a.76.76,0,0,1,.65-.38h2.62a.76.76,0,0,1,.65.38l1.31,2.27a.77.77,0,0,1,0,.75L18.29,22.4A.76.76,0,0,1,17.64,22.78Zm-2.19-1.5h1.76l.87-1.52-.87-1.51H15.45l-.87,1.51Z"/></svg>