<svg id="Layer_1" data-name="Layer 1" xmlns="http://www.w3.org/2000/svg" viewBox="0 0 36 36"><defs><style>.cls-1{fill:#231f20;}</style></defs><title>gym_lead</title><path class="cls-1" d="M27.51,29.32H33V31.6H24.54V18.81h3Z"/><path class="cls-1" d="M18.69,28.87A16.49,16.49,0,0,1,6.06,22.75,14.27,14.27,0,0,1,4,19.17a13.76,13.76,0,0,1-.59-8.24c.49-2.17,1.62-5,4.19-6.14s4.65.33,6.44,1.48l.29.18,1.85,1.2a53.59,53.59,0,0,0,7.14,4.15c.5.23,1,.45,1.6.68,2,.81,4.29,1.74,5.69,3.47a.75.75,0,0,1-1.16.94c-1.16-1.43-3.16-2.24-5.09-3-.58-.24-1.14-.47-1.66-.7a57.41,57.41,0,0,1-7.34-4.26c-.61-.4-1.22-.8-1.84-1.19l-.29-.19c-1.63-1-3.32-2.13-5-1.38-2,.9-2.92,3.28-3.34,5.11a12.26,12.26,0,0,0,2.4,10.55A14.64,14.64,0,0,0,21.64,27,.75.75,0,1,1,22,28.49,14.1,14.1,0,0,1,18.69,28.87Zm-3-5.35a5.26,5.26,0,0,1-2.56-.67,5.24,5.24,0,1,1,7.13-2h0A5.23,5.23,0,0,1,15.68,23.52Zm0-9a4,4,0,0,0-1,.14,3.73,3.73,0,1,0,4.27,5.42,3.74,3.74,0,0,0-3.25-5.56Zm3.91,5.93h0Z"/><path class="cls-1" d="M16.91,21.2H14.43a.76.76,0,0,1-.65-.37l-1.24-2.15a.77.77,0,0,1,0-.75l1.24-2.15a.76.76,0,0,1,.65-.37h2.48a.74.74,0,0,1,.65.37l1.24,2.15a.77.77,0,0,1,0,.75l-1.24,2.15A.74.74,0,0,1,16.91,21.2Zm-2.05-1.5h1.62l.8-1.39-.8-1.4H14.86l-.8,1.4Z"/></svg>