<svg id="Layer_1" data-name="Layer 1" xmlns="http://www.w3.org/2000/svg" viewBox="0 0 36 36"><defs><style>.cls-1{fill:#231f20;}</style></defs><title>height</title><path class="cls-1" d="M33,16.51a3.8,3.8,0,0,0-.91-3,11.14,11.14,0,0,0-8.21-3.39,3.57,3.57,0,1,0-.26,0,11.18,11.18,0,0,0-8.22,3.39,3.8,3.8,0,0,0-.9,3,8.83,8.83,0,0,0,3,5.46,1.75,1.75,0,0,0,1.2.42L18.32,30a2.36,2.36,0,0,0-1.59,2.24.75.75,0,0,0,.75.75h3.35a.67.67,0,0,0,.74-.66l1-7.49H24.9l1,7.49a.75.75,0,0,0,.74.66H30a.75.75,0,0,0,.75-.75A2.36,2.36,0,0,0,29.14,30l-.35-7.62A2.18,2.18,0,0,0,30,22,8.88,8.88,0,0,0,33,16.51ZM21.66,6.57a2.07,2.07,0,1,1,2.07,2.08A2.07,2.07,0,0,1,21.66,6.57Zm7.42,14.21c-.1.07-.22.12-.22.17a.46.46,0,0,1,.11-.22c.51-.52,2.41-3,1.66-4.81-.28-.66-1-1.44-2.92-1.44a.75.75,0,0,0-.75.79l.71,15.39a.74.74,0,0,0,.71.72.94.94,0,0,1,.42.12H27.29L26.3,24a.75.75,0,0,0-.74-.66H21.9a.75.75,0,0,0-.74.66l-1,7.49H18.66a.93.93,0,0,1,.41-.12.75.75,0,0,0,.72-.72l.71-15.39a.77.77,0,0,0-.21-.56.74.74,0,0,0-.54-.23c-1.92,0-2.65.78-2.92,1.44-.76,1.79,1.14,4.29,1.65,4.81.05.05.11.15.14.16a.53.53,0,0,1-.24-.11A7.44,7.44,0,0,1,16,16.38a2.35,2.35,0,0,1,.52-1.85,9.74,9.74,0,0,1,7.24-2.9A9.7,9.7,0,0,1,31,14.53a2.31,2.31,0,0,1,.53,1.85A7.44,7.44,0,0,1,29.08,20.78Zm-.46-2.06-.12-2.67a1,1,0,0,1,.75.45A3.15,3.15,0,0,1,28.62,18.72ZM18.21,16.5a1,1,0,0,1,.75-.45l-.12,2.67A3.1,3.1,0,0,1,18.21,16.5Z"/><path class="cls-1" d="M11.39,31.5H3.75a.75.75,0,0,0,0,1.5h7.64a.75.75,0,0,0,0-1.5Z"/><path class="cls-1" d="M11.39,3H3.75a.75.75,0,0,0,0,1.5h7.64a.75.75,0,0,0,0-1.5Z"/><path class="cls-1" d="M3.75,7.67H7.57a.75.75,0,0,0,0-1.5H3.75a.75.75,0,0,0,0,1.5Z"/><path class="cls-1" d="M3.75,10.83H7.57a.75.75,0,0,0,0-1.5H3.75a.75.75,0,0,0,0,1.5Z"/><path class="cls-1" d="M11.39,12.5H3.75a.75.75,0,0,0,0,1.5h7.64a.75.75,0,0,0,0-1.5Z"/><path class="cls-1" d="M3.75,17.17H7.57a.75.75,0,1,0,0-1.5H3.75a.75.75,0,1,0,0,1.5Z"/><path class="cls-1" d="M3.75,20.33H7.57a.75.75,0,0,0,0-1.5H3.75a.75.75,0,0,0,0,1.5Z"/><path class="cls-1" d="M11.39,22H3.75a.75.75,0,0,0,0,1.5h7.64a.75.75,0,0,0,0-1.5Z"/><path class="cls-1" d="M3.75,26.67H7.57a.75.75,0,0,0,0-1.5H3.75a.75.75,0,0,0,0,1.5Z"/><path class="cls-1" d="M3.75,29.83H7.57a.75.75,0,0,0,0-1.5H3.75a.75.75,0,0,0,0,1.5Z"/></svg>