<svg id="Layer_1" data-name="Layer 1" xmlns="http://www.w3.org/2000/svg" viewBox="0 0 36 36"><defs><style>.cls-1{fill:#231f20;}</style></defs><title>instagram</title><path class="cls-1" d="M18,5.71c4,0,4.48,0,6.06.1a8.35,8.35,0,0,1,2.78.53A5,5,0,0,1,29.72,9.2,8.29,8.29,0,0,1,30.23,12c.06,1.58.08,2.06.06,6.06s0,4.48-.1,6.06a8.35,8.35,0,0,1-.53,2.78,5,5,0,0,1-2.86,2.84,8.29,8.29,0,0,1-2.78.51c-1.58.06-2.06.08-6.06.06s-4.48,0-6.06-.1a8.35,8.35,0,0,1-2.78-.53A4.64,4.64,0,0,1,7.4,28.53,4.62,4.62,0,0,1,6.28,26.8,8.29,8.29,0,0,1,5.77,24C5.71,22.44,5.69,22,5.71,18s0-4.48.1-6.06a8.35,8.35,0,0,1,.53-2.78A4.64,4.64,0,0,1,7.47,7.4,4.62,4.62,0,0,1,9.2,6.28,8.29,8.29,0,0,1,12,5.77C13.56,5.71,14,5.69,18,5.71m0-2.71c-4.07,0-4.58,0-6.18.07a10.93,10.93,0,0,0-3.64.69A7.4,7.4,0,0,0,5.56,5.48,7.27,7.27,0,0,0,3.83,8.13a10.63,10.63,0,0,0-.71,3.64C3,13.37,3,13.88,3,18s0,4.58.07,6.18a10.93,10.93,0,0,0,.69,3.64,7.4,7.4,0,0,0,1.72,2.67,7.27,7.27,0,0,0,2.65,1.73,10.63,10.63,0,0,0,3.64.71c1.6.08,2.11.1,6.18.12s4.58,0,6.18-.07a10.93,10.93,0,0,0,3.64-.69,7.4,7.4,0,0,0,2.67-1.72,7.27,7.27,0,0,0,1.73-2.65,10.63,10.63,0,0,0,.71-3.64c.08-1.6.1-2.11.12-6.18s0-4.58-.07-6.18a10.93,10.93,0,0,0-.69-3.64,7.4,7.4,0,0,0-1.72-2.67,7.27,7.27,0,0,0-2.65-1.73,10.63,10.63,0,0,0-3.64-.71C22.63,3,22.12,3,18.05,3Z"/><path class="cls-1" d="M18,10.3A7.7,7.7,0,1,0,25.7,18,7.7,7.7,0,0,0,18,10.3ZM18,23a5,5,0,1,1,5-5A5,5,0,0,1,18,23Z"/><circle class="cls-1" cx="26.03" cy="10.02" r="1.8"/></svg>