<svg id="Layer_1" data-name="Layer 1" xmlns="http://www.w3.org/2000/svg" viewBox="0 0 36 36"><defs><style>.cls-1{fill:#231f20;}</style></defs><title>menu</title><path class="cls-1" d="M33,9a1.5,1.5,0,0,1-1.5,1.5H4.5A1.5,1.5,0,0,1,3,9H3A1.5,1.5,0,0,1,4.5,7.5h27A1.5,1.5,0,0,1,33,9Z"/><path class="cls-1" d="M33,18a1.5,1.5,0,0,1-1.5,1.5H4.5A1.5,1.5,0,0,1,3,18H3a1.5,1.5,0,0,1,1.5-1.5h27A1.5,1.5,0,0,1,33,18Z"/><path class="cls-1" d="M33,27a1.5,1.5,0,0,1-1.5,1.5H4.5A1.5,1.5,0,0,1,3,27H3a1.5,1.5,0,0,1,1.5-1.5h27A1.5,1.5,0,0,1,33,27Z"/></svg>