<svg id="Layer_1" data-name="Layer 1" xmlns="http://www.w3.org/2000/svg" viewBox="0 0 36 36"><defs><style>.cls-1{fill:#231f20;}</style></defs><title>morethan2tries</title><path class="cls-1" d="M30.59,26.68H18.69V24.1L24,18.31a11.22,11.22,0,0,0,1.56-2.14A3.62,3.62,0,0,0,26,14.54,2.5,2.5,0,0,0,25.55,13a1.68,1.68,0,0,0-1.43-.59,1.65,1.65,0,0,0-1.44.76,3.41,3.41,0,0,0-.51,1.94h-3.9l0-.07a5.33,5.33,0,0,1,1.56-4,5.79,5.79,0,0,1,4.31-1.65,6.26,6.26,0,0,1,4.34,1.38A4.86,4.86,0,0,1,30,14.5a5.08,5.08,0,0,1-.85,2.88A37.85,37.85,0,0,1,26,21.07L24,23.57l0,.06h6.61Z"/><path class="cls-1" d="M14.21,18a5.83,5.83,0,0,1,.19,1.53A4.92,4.92,0,0,1,14.21,21L5.6,24.78a4.25,4.25,0,0,1-.19-1.45,4.68,4.68,0,0,1,.19-1.47l5.4-2.4L5.6,17.14a4.25,4.25,0,0,1-.19-1.45,4.46,4.46,0,0,1,.19-1.45Z"/></svg>