<svg id="Layer_1" data-name="Layer 1" xmlns="http://www.w3.org/2000/svg" viewBox="0 0 36 36"><defs><style>.cls-1{fill:#231f20;}</style></defs><title>secondgo</title><path class="cls-1" d="M15.34,26.59H3.44V24l5.27-5.78a11.9,11.9,0,0,0,1.55-2.14,3.62,3.62,0,0,0,.49-1.64,2.53,2.53,0,0,0-.45-1.58,1.67,1.67,0,0,0-1.43-.58A1.63,1.63,0,0,0,7.43,13,3.38,3.38,0,0,0,6.92,15H3l0-.07a5.33,5.33,0,0,1,1.57-4,5.75,5.75,0,0,1,4.3-1.65,6.26,6.26,0,0,1,4.34,1.38,4.88,4.88,0,0,1,1.53,3.81,5,5,0,0,1-.85,2.87,35.19,35.19,0,0,1-3.1,3.7L8.71,23.47l0,.06h6.61Z"/><path class="cls-1" d="M18.34,13.63h-.83l-1.32-2.26h0v2.26h-.83V10h.83l1.32,2.26h0V10h.83Z"/><path class="cls-1" d="M18.92,13.63V10h1.32a1.48,1.48,0,0,1,1.06.41,1.41,1.41,0,0,1,.43,1.07v.65a1.4,1.4,0,0,1-.43,1.06,1.44,1.44,0,0,1-1.06.41Zm.83-3V13h.49a.6.6,0,0,0,.47-.23,1,1,0,0,0,.18-.6V11.5a.92.92,0,0,0-.18-.59.58.58,0,0,0-.47-.24Z"/><path class="cls-1" d="M24.17,25.39a3.82,3.82,0,0,1-1.34,1,5.19,5.19,0,0,1-2.21.41,3.76,3.76,0,0,1-2.75-1,3.59,3.59,0,0,1-1.06-2.69v-1.9a3.66,3.66,0,0,1,1-2.69,3.56,3.56,0,0,1,2.64-1,3.89,3.89,0,0,1,2.64.78A2.58,2.58,0,0,1,24,20.32l0,0H22a1.25,1.25,0,0,0-.35-1A1.55,1.55,0,0,0,20.55,19a1.44,1.44,0,0,0-1.18.58,2.4,2.4,0,0,0-.45,1.51v1.92a2.45,2.45,0,0,0,.44,1.52,1.49,1.49,0,0,0,1.26.58,3.65,3.65,0,0,0,.91-.09,1.54,1.54,0,0,0,.53-.25V23.18H20.45v-1.4h3.72Z"/><path class="cls-1" d="M33,22.92a3.81,3.81,0,0,1-1.07,2.77,3.73,3.73,0,0,1-2.78,1.09,3.7,3.7,0,0,1-3.88-3.86V21.28a3.81,3.81,0,0,1,1.07-2.77,3.75,3.75,0,0,1,2.8-1.09,3.71,3.71,0,0,1,2.78,1.09A3.78,3.78,0,0,1,33,21.28Zm-2.11-1.65a2.66,2.66,0,0,0-.45-1.6,1.67,1.67,0,0,0-2.61,0,2.69,2.69,0,0,0-.45,1.61v1.65a2.65,2.65,0,0,0,.46,1.61,1.67,1.67,0,0,0,2.6,0,2.71,2.71,0,0,0,.45-1.61Z"/></svg>