<svg id="Layer_1" data-name="Layer 1" xmlns="http://www.w3.org/2000/svg" viewBox="0 0 36 36"><defs><style>.cls-1{fill:#231f20;}</style></defs><title>security_3</title><path class="cls-1" d="M20.18,7.41a35.44,35.44,0,0,1-.77,3.71l2.16.58a40.06,40.06,0,0,0,.82-4Z"/><path class="cls-1" d="M19.41,21.66V14A2.85,2.85,0,0,0,21,12.13l-1.44-.36c-.14.55-.86.94-1.56,1.11H17a1.07,1.07,0,0,1-.34-.65,58.93,58.93,0,0,1-.41-7c0-.49.69-.74,1.06-.74a4.66,4.66,0,0,1,3,1.64c.32.39.35.63.34.67l1.46.32a2.35,2.35,0,0,0-.64-1.91A6.09,6.09,0,0,0,17.26,3a2.42,2.42,0,0,0-2.55,2.23,60.75,60.75,0,0,0,.43,7.22,2.28,2.28,0,0,0,1.55,1.91V22A2.87,2.87,0,0,0,15,23.87l1.44.36a1.73,1.73,0,0,1,1.16-1h1.57a1.43,1.43,0,0,1,.23.53,58.93,58.93,0,0,1,.41,7c0,.49-.69.74-1.06.74a4.66,4.66,0,0,1-3-1.64c-.32-.39-.35-.63-.34-.67l-1.46-.32a2.35,2.35,0,0,0,.64,1.91A6.09,6.09,0,0,0,18.74,33a2.42,2.42,0,0,0,2.55-2.23,60.75,60.75,0,0,0-.43-7.22A2.31,2.31,0,0,0,19.41,21.66Z"/><path class="cls-1" d="M16.59,24.88l-2.16-.58a40.06,40.06,0,0,0-.82,4l2.21.3A35.44,35.44,0,0,1,16.59,24.88Z"/><path class="cls-1" d="M30.79,7.41A35.44,35.44,0,0,1,30,11.12l2.15.58a40.29,40.29,0,0,0,.83-4Z"/><path class="cls-1" d="M30,21.66V14a2.88,2.88,0,0,0,1.6-1.82l-1.44-.36c-.14.55-.86.94-1.56,1.11H27.55a1,1,0,0,1-.33-.65,58.9,58.9,0,0,1-.42-7c0-.49.7-.74,1.07-.74a4.61,4.61,0,0,1,3,1.64c.33.39.36.63.35.67l1.46.32a2.35,2.35,0,0,0-.64-1.91A6.09,6.09,0,0,0,27.87,3a2.42,2.42,0,0,0-2.55,2.23,60.75,60.75,0,0,0,.43,7.22,2.28,2.28,0,0,0,1.54,1.91V22a2.92,2.92,0,0,0-1.7,1.86l1.45.36a1.73,1.73,0,0,1,1.16-1h1.57a1.23,1.23,0,0,1,.22.53,56.86,56.86,0,0,1,.42,7c0,.49-.69.74-1.07.74a4.61,4.61,0,0,1-3-1.64c-.32-.39-.36-.63-.35-.67l-1.45-.32a2.31,2.31,0,0,0,.63,1.91A6.13,6.13,0,0,0,29.34,33a2.43,2.43,0,0,0,2.56-2.23,58.7,58.7,0,0,0-.44-7.22A2.28,2.28,0,0,0,30,21.66Z"/><path class="cls-1" d="M27.19,24.88,25,24.3a40.29,40.29,0,0,0-.83,4l2.22.3A37.85,37.85,0,0,1,27.19,24.88Z"/><path class="cls-1" d="M9.57,7.41a37.85,37.85,0,0,1-.76,3.71L11,11.7a40.29,40.29,0,0,0,.83-4Z"/><path class="cls-1" d="M8.81,21.66V14a2.88,2.88,0,0,0,1.6-1.82L9,11.77c-.13.55-.85.94-1.56,1.11H6.34A1,1,0,0,1,6,12.23a56.86,56.86,0,0,1-.42-7c0-.49.69-.74,1.07-.74a4.61,4.61,0,0,1,3,1.64c.32.39.36.63.35.67l1.45.32a2.31,2.31,0,0,0-.63-1.91A6.13,6.13,0,0,0,6.66,3,2.43,2.43,0,0,0,4.1,5.23a58.7,58.7,0,0,0,.44,7.22,2.27,2.27,0,0,0,1.54,1.91V22a2.92,2.92,0,0,0-1.7,1.86l1.44.36a1.76,1.76,0,0,1,1.16-1H8.55a1.15,1.15,0,0,1,.23.53,58.9,58.9,0,0,1,.42,7c0,.49-.7.74-1.07.74a4.61,4.61,0,0,1-3-1.64c-.33-.39-.36-.63-.35-.67L3.3,28.88a2.35,2.35,0,0,0,.64,1.91A6.09,6.09,0,0,0,8.13,33a2.42,2.42,0,0,0,2.55-2.23,60.75,60.75,0,0,0-.43-7.22A2.32,2.32,0,0,0,8.81,21.66Z"/><path class="cls-1" d="M6,24.88,3.83,24.3a40.29,40.29,0,0,0-.83,4l2.21.3A35.44,35.44,0,0,1,6,24.88Z"/></svg>