<svg id="Layer_1" data-name="Layer 1" xmlns="http://www.w3.org/2000/svg" viewBox="0 0 36 36"><defs><style>.cls-1{fill:#231f20;}</style></defs><title>security_2</title><path class="cls-1" d="M25.49,7.41c-.11.78-.46,2.53-.77,3.71l2.15.58a40.29,40.29,0,0,0,.83-4Z"/><path class="cls-1" d="M24.72,21.66V14a2.88,2.88,0,0,0,1.6-1.82l-1.44-.36c-.14.55-.86.94-1.57,1.11H22.25a1,1,0,0,1-.33-.65,58.9,58.9,0,0,1-.42-7c0-.49.69-.74,1.07-.74a4.61,4.61,0,0,1,3,1.64c.32.39.36.63.35.67l1.45.32a2.31,2.31,0,0,0-.63-1.91A6.11,6.11,0,0,0,22.57,3,2.43,2.43,0,0,0,20,5.23a60.73,60.73,0,0,0,.44,7.22A2.28,2.28,0,0,0,22,14.36V22a2.92,2.92,0,0,0-1.7,1.86l1.44.36a1.75,1.75,0,0,1,1.17-1h1.56a1.15,1.15,0,0,1,.23.53,58.9,58.9,0,0,1,.42,7c0,.49-.7.74-1.07.74a4.61,4.61,0,0,1-3-1.64c-.33-.39-.36-.63-.35-.67l-1.45-.32a2.31,2.31,0,0,0,.63,1.91A6.09,6.09,0,0,0,24,33a2.42,2.42,0,0,0,2.55-2.23,60.75,60.75,0,0,0-.43-7.22A2.3,2.3,0,0,0,24.72,21.66Z"/><path class="cls-1" d="M21.89,24.88l-2.15-.58a40.29,40.29,0,0,0-.83,4l2.21.3C21.22,27.81,21.58,26.06,21.89,24.88Z"/><path class="cls-1" d="M14.88,7.41c-.1.78-.46,2.53-.77,3.71l2.15.58a40.29,40.29,0,0,0,.83-4Z"/><path class="cls-1" d="M14.11,21.66V14a2.88,2.88,0,0,0,1.6-1.82l-1.44-.36c-.14.55-.86.94-1.56,1.11H11.64a1,1,0,0,1-.33-.65,58.9,58.9,0,0,1-.42-7c0-.49.7-.74,1.07-.74a4.61,4.61,0,0,1,3,1.64c.33.39.36.63.35.67l1.45.32a2.31,2.31,0,0,0-.63-1.91A6.09,6.09,0,0,0,12,3,2.42,2.42,0,0,0,9.41,5.23a60.75,60.75,0,0,0,.43,7.22,2.28,2.28,0,0,0,1.54,1.91V22a2.92,2.92,0,0,0-1.7,1.86l1.44.36a1.78,1.78,0,0,1,1.17-1h1.56a1.15,1.15,0,0,1,.23.53,58.9,58.9,0,0,1,.42,7c0,.49-.69.74-1.07.74a4.61,4.61,0,0,1-3-1.64c-.32-.39-.36-.63-.35-.67l-1.45-.32a2.31,2.31,0,0,0,.63,1.91A6.11,6.11,0,0,0,13.43,33,2.43,2.43,0,0,0,16,30.77a60.73,60.73,0,0,0-.44-7.22A2.28,2.28,0,0,0,14.11,21.66Z"/><path class="cls-1" d="M11.28,24.88,9.13,24.3a40.29,40.29,0,0,0-.83,4l2.21.3C10.62,27.81,11,26.06,11.28,24.88Z"/></svg>