<svg id="Layer_1" data-name="Layer 1" xmlns="http://www.w3.org/2000/svg" viewBox="0 0 36 36"><defs><style>.cls-1{fill:#231f20;}</style></defs><title>security_1</title><path class="cls-1" d="M20.18,7.41a35.44,35.44,0,0,1-.77,3.71l2.16.58a40.06,40.06,0,0,0,.82-4Z"/><path class="cls-1" d="M19.41,21.66V14A2.85,2.85,0,0,0,21,12.13l-1.44-.36c-.14.55-.86.94-1.56,1.11H17a1.07,1.07,0,0,1-.34-.65,58.93,58.93,0,0,1-.41-7c0-.49.69-.74,1.06-.74a4.66,4.66,0,0,1,3,1.64c.32.39.35.63.34.67l1.46.32a2.35,2.35,0,0,0-.64-1.91A6.09,6.09,0,0,0,17.26,3a2.42,2.42,0,0,0-2.55,2.23,60.75,60.75,0,0,0,.43,7.22,2.28,2.28,0,0,0,1.55,1.91V22A2.87,2.87,0,0,0,15,23.87l1.44.36a1.73,1.73,0,0,1,1.16-1h1.57a1.43,1.43,0,0,1,.23.53,58.93,58.93,0,0,1,.41,7c0,.49-.69.74-1.06.74a4.66,4.66,0,0,1-3-1.64c-.32-.39-.35-.63-.34-.67l-1.46-.32a2.35,2.35,0,0,0,.64,1.91A6.09,6.09,0,0,0,18.74,33a2.42,2.42,0,0,0,2.55-2.23,60.75,60.75,0,0,0-.43-7.22A2.31,2.31,0,0,0,19.41,21.66Z"/><path class="cls-1" d="M16.59,24.88l-2.16-.58a40.06,40.06,0,0,0-.82,4l2.21.3A35.44,35.44,0,0,1,16.59,24.88Z"/></svg>