<svg id="Layer_1" data-name="Layer 1" xmlns="http://www.w3.org/2000/svg" viewBox="0 0 36 36"><defs><style>.cls-1{fill:#231f20;}</style></defs><title>settings</title><path class="cls-1" d="M19.65,33h-3.3A1.35,1.35,0,0,1,15,31.93l-.37-1.83-2.74-1.17-1.68,1a1.36,1.36,0,0,1-1.69-.16L6.22,27.44a1.36,1.36,0,0,1-.16-1.69l1-1.56L6,21.43,4.07,21A1.35,1.35,0,0,1,3,19.65v-3.3A1.35,1.35,0,0,1,4.07,15l1.83-.37,1.17-2.74-1-1.68a1.36,1.36,0,0,1,.16-1.69L8.56,6.22a1.36,1.36,0,0,1,1.68-.16l1.56,1L14.57,6,15,4.07A1.35,1.35,0,0,1,16.35,3h3.3A1.35,1.35,0,0,1,21,4.07l.37,1.83,2.74,1.17,1.68-1a1.37,1.37,0,0,1,1.69.16l2.33,2.34a1.35,1.35,0,0,1,.17,1.69l-1,1.56L30,14.57l1.9.47A1.35,1.35,0,0,1,33,16.35v3.3A1.35,1.35,0,0,1,31.93,21l-1.83.37-1.17,2.74,1,1.68a1.35,1.35,0,0,1-.17,1.69l-2.33,2.34a1.36,1.36,0,0,1-1.69.16l-1.56-1L21.43,30,21,31.93A1.35,1.35,0,0,1,19.65,33Zm-.16-1.37Zm-3,0Zm0-.13h3l.34-1.69a1.66,1.66,0,0,1,1.05-1.19l2.59-1.08a1.62,1.62,0,0,1,1.52.12l1.45,1,2.15-2.15-1-1.44a1.64,1.64,0,0,1-.09-1.59l1.07-2.58a1.62,1.62,0,0,1,1.17-1l1.69-.34v-3l-1.69-.34a1.64,1.64,0,0,1-1.19-1.05L27.54,12.5A1.62,1.62,0,0,1,27.66,11l1-1.44L26.47,7.38,25,8.34a1.65,1.65,0,0,1-1.58.09L20.85,7.36a1.63,1.63,0,0,1-1-1.16l-.34-1.7h-3l-.34,1.7a1.66,1.66,0,0,1-1.05,1.18L12.5,8.46A1.65,1.65,0,0,1,11,8.34l-1.44-1L7.38,9.53l1,1.44a1.66,1.66,0,0,1,.09,1.59L7.36,15.15a1.64,1.64,0,0,1-1.17,1l-1.69.34v3l1.69.34a1.66,1.66,0,0,1,1.19,1.05L8.46,23.5A1.64,1.64,0,0,1,8.34,25l-1,1.44,2.15,2.15,1.44-1a1.67,1.67,0,0,1,1.59-.09l2.58,1.07a1.66,1.66,0,0,1,1,1.16Zm15.15-15Zm-27.26,0ZM19.49,4.37Zm-3,0ZM18,24.81A6.81,6.81,0,1,1,24.81,18,6.81,6.81,0,0,1,18,24.81Zm0-12.12A5.31,5.31,0,1,0,23.31,18,5.31,5.31,0,0,0,18,12.69Z"/></svg>