<svg id="Layer_1" data-name="Layer 1" xmlns="http://www.w3.org/2000/svg" viewBox="0 0 36 36"><defs><style>.cls-1{fill:#231f20;}</style></defs><title>sits_1</title><path class="cls-1" d="M18.24,18.26a.63.63,0,0,0,.19,0,.74.74,0,0,0,.72-.56L22.79,3.94A.75.75,0,0,0,22.25,3a.74.74,0,0,0-.91.53L17.7,17.35A.75.75,0,0,0,18.24,18.26Z"/><path class="cls-1" d="M30.5,5.78a6,6,0,0,0-1.27.12,3.88,3.88,0,0,1-2.31,1.7,2.28,2.28,0,0,0,.69,1.93,3.94,3.94,0,0,0,1.65-.76c0,.27,0,.57,0,.9v5.26a6.23,6.23,0,0,0,1.27.12,5.83,5.83,0,0,0,1.26-.12v-9A6.11,6.11,0,0,0,30.5,5.78Z"/><path class="cls-1" d="M29.42,19.83a2.55,2.55,0,0,0-3,.53l-2.89-1.29a5.16,5.16,0,0,0-4.85.34L16.78,20.6l-.52-3.66a3.51,3.51,0,0,0-2.42-2.86,3.41,3.41,0,0,0,1.43-1.81,3.48,3.48,0,1,0-5,1.91C7.68,14.82,5.45,16.45,4.7,18c-1.47,3,.87,6.76,2.38,8a1.64,1.64,0,0,0,2.17.08,1.43,1.43,0,0,0,.47-1,1.93,1.93,0,0,0-.49-1.3c-.54-.6-1.68-2.62-1.33-3.66a.82.82,0,0,1,.36-.44l1.37,4.2a8.49,8.49,0,0,0,.62,1.41l-.2.44a8.81,8.81,0,0,0-.42,2.7v2a1.89,1.89,0,0,0,1.89,1.89h1.35a1.9,1.9,0,0,0,1.9-1.89V29a9.17,9.17,0,0,0,1.4.31l2.4.35a8.05,8.05,0,0,1,2.44.76l5.1,2.55a.67.67,0,0,0,.33.08.69.69,0,0,0,.25,0,.79.79,0,0,0,.44-.38L28.8,29.2a.75.75,0,0,0-.34-1,2.56,2.56,0,0,0-2.9.42l-3.1-2.2a9.53,9.53,0,0,0-2.52-1.29l-.2-.07.89-.77a3.67,3.67,0,0,1,3.58-.7l3,1a.76.76,0,0,0,.92-.38l1.67-3.38A.75.75,0,0,0,29.42,19.83ZM10.11,10.51a2,2,0,0,1,1-1.14,2,2,0,0,1,.87-.2,2.05,2.05,0,0,1,.64.11,2,2,0,0,1,1.14,1,2.05,2.05,0,0,1,.1,1.52,2,2,0,0,1-3.75-1.28Zm3.16,17.83v2.1a.4.4,0,0,1-.4.39H11.52a.39.39,0,0,1-.39-.39v-2a7.32,7.32,0,0,1,.18-1.65c.16.17.34.31.52.47A6.55,6.55,0,0,0,13.27,28.34ZM27,23l-2.33-.8a5.21,5.21,0,0,0-5.05,1l-1.88,1.62a.76.76,0,0,0-.25.72.73.73,0,0,0,.5.56l1.44.49a8.25,8.25,0,0,1,2.13,1.09l3.68,2.62a.73.73,0,0,0,.61.12.8.8,0,0,0,.49-.37,1.09,1.09,0,0,1,.61-.53l-.87,1.77L21.68,29a9.8,9.8,0,0,0-2.9-.91l-2.4-.34a7.25,7.25,0,0,1-2.13-.65A1.58,1.58,0,0,1,14,27a6.38,6.38,0,0,1-.71-.43l-.18-.14a5,5,0,0,1-.41-.38c-.15-.15-.31-.31-.46-.49a6.58,6.58,0,0,1-1.17-2.1L9.45,18.53A.75.75,0,0,0,8.74,18H8.6a2.52,2.52,0,0,0-2.12,1.67c-.62,1.86,1,4.42,1.64,5.14,0,0,.06.09.09.12a.62.62,0,0,1-.17-.1c-1.25-1-3-4.06-2-6.2.76-1.58,3.88-3.39,6.73-3.25a2,2,0,0,1,2,1.75l.68,4.8a.78.78,0,0,0,.43.58.75.75,0,0,0,.71-.05l2.89-1.8a3.65,3.65,0,0,1,3.44-.24L26.37,22a.74.74,0,0,0,1-.33,1.08,1.08,0,0,1,.62-.52Z"/></svg>