<svg id="Layer_1" data-name="Layer 1" xmlns="http://www.w3.org/2000/svg" viewBox="0 0 36 36"><defs><style>.cls-1{fill:#231f20;}</style></defs><title>sits_3</title><path class="cls-1" d="M17,18.26a.63.63,0,0,0,.19,0,.74.74,0,0,0,.72-.56L21.56,3.94A.75.75,0,0,0,21,3a.74.74,0,0,0-.91.53L16.47,17.35A.75.75,0,0,0,17,18.26Z"/><path class="cls-1" d="M28.19,19.83a2.56,2.56,0,0,0-3,.53l-2.89-1.29a5.16,5.16,0,0,0-4.85.34L15.55,20.6,15,16.94a3.5,3.5,0,0,0-2.42-2.86A3.41,3.41,0,0,0,14,12.27a3.46,3.46,0,0,0-.17-2.66A3.48,3.48,0,0,0,7.46,10a3.49,3.49,0,0,0,1.61,4.16c-2.59.64-4.85,2.26-5.61,3.81C2,21,4.34,24.76,5.85,26A1.63,1.63,0,0,0,8,26.09a1.35,1.35,0,0,0,.47-1A1.92,1.92,0,0,0,8,23.82c-.55-.6-1.68-2.61-1.33-3.66A.82.82,0,0,1,7,19.72l1.37,4.2A8,8,0,0,0,9,25.33l-.2.44a8.81,8.81,0,0,0-.42,2.7v2a1.89,1.89,0,0,0,1.89,1.89h1.35a1.89,1.89,0,0,0,1.89-1.89V29a9.3,9.3,0,0,0,1.41.31l2.4.35a8.05,8.05,0,0,1,2.44.76l5.1,2.55a.67.67,0,0,0,.33.08.73.73,0,0,0,.25,0,.79.79,0,0,0,.44-.38l1.67-3.38a.75.75,0,0,0-.34-1,2.56,2.56,0,0,0-2.9.43l-3.1-2.21a9.53,9.53,0,0,0-2.52-1.29l-.2-.07.89-.77a3.67,3.67,0,0,1,3.58-.7l3,1a.76.76,0,0,0,.92-.38l1.67-3.38A.75.75,0,0,0,28.19,19.83ZM8.88,10.51a2,2,0,0,1,1-1.14,2,2,0,0,1,.87-.2,2.05,2.05,0,0,1,.64.11,2,2,0,1,1-2.51,1.23ZM12,28.34v2.1a.39.39,0,0,1-.39.39H10.29a.39.39,0,0,1-.39-.39v-2a7.32,7.32,0,0,1,.18-1.65,7.29,7.29,0,0,0,.58.53A6.43,6.43,0,0,0,12,28.34ZM25.8,23l-2.33-.8a5.18,5.18,0,0,0-5,1l-1.88,1.62a.76.76,0,0,0-.25.72.73.73,0,0,0,.5.56l1.44.49a8.25,8.25,0,0,1,2.13,1.09L24,30.26a.72.72,0,0,0,.6.12.74.74,0,0,0,.49-.37,1.14,1.14,0,0,1,.62-.53l-.87,1.77L20.45,29a9.8,9.8,0,0,0-2.9-.91l-2.4-.34A7.25,7.25,0,0,1,13,27.13a1.58,1.58,0,0,1-.26-.13,6.38,6.38,0,0,1-.71-.43l-.19-.15a4.61,4.61,0,0,1-.4-.37c-.15-.14-.3-.3-.45-.47a6.51,6.51,0,0,1-1.18-2.12L8.22,18.53A.75.75,0,0,0,7.51,18H7.37a2.52,2.52,0,0,0-2.12,1.67c-.62,1.86,1,4.42,1.63,5.14A1.06,1.06,0,0,1,7,25a.66.66,0,0,1-.18-.1c-1.24-1-3-4.06-2-6.2.77-1.58,3.88-3.36,6.74-3.25a2,2,0,0,1,2,1.75l.69,4.8a.78.78,0,0,0,.43.58.75.75,0,0,0,.71-.05l2.89-1.8a3.64,3.64,0,0,1,3.43-.24L25.13,22a.75.75,0,0,0,1-.33,1.05,1.05,0,0,1,.62-.52Z"/><path class="cls-1" d="M29.17,15.21a6.54,6.54,0,0,1-2.71-.51A2.69,2.69,0,0,1,27.09,13a9.19,9.19,0,0,0,1.95.25c1.1,0,1.43-.35,1.43-1.07s-.28-1.06-1.24-1.06H27.9a3.2,3.2,0,0,1,0-1.84h1.33c.75,0,1-.35,1-.88S29.83,7.5,29,7.5a5.1,5.1,0,0,0-1.69.26,2.16,2.16,0,0,1-.76-1.65,7.51,7.51,0,0,1,2.7-.51c2.13,0,3.43.84,3.43,2.51a2.08,2.08,0,0,1-1.25,2.05A2.31,2.31,0,0,1,33,12.52C33,14.23,31.9,15.21,29.17,15.21Z"/></svg>