<svg id="Layer_1" data-name="Layer 1" xmlns="http://www.w3.org/2000/svg" viewBox="0 0 36 36"><defs><style>.cls-1{fill:#231f20;}</style></defs><title>sits_2</title><path class="cls-1" d="M28.91,13.08a.5.5,0,0,1,0-.21c.08-.61.91-.81,1.59-1.21,1.57-.9,2.34-1.7,2.34-3.21,0-1.81-1.25-2.74-3.36-2.74a6.79,6.79,0,0,0-3,.65,2,2,0,0,0,.69,1.7,5.61,5.61,0,0,1,1.9-.39c.78,0,1.21.27,1.21.83s-.31,1-1.44,1.8S26.24,12,26.24,14a4.24,4.24,0,0,0,.15,1.09h6.17a2.64,2.64,0,0,0,.19-1,2.78,2.78,0,0,0-.19-1Z"/><path class="cls-1" d="M17.17,18.26a.69.69,0,0,0,.2,0,.74.74,0,0,0,.72-.56L21.73,3.94A.75.75,0,0,0,21.19,3a.74.74,0,0,0-.91.53L16.64,17.35A.74.74,0,0,0,17.17,18.26Z"/><path class="cls-1" d="M28.36,19.83a2.58,2.58,0,0,0-3,.53l-2.89-1.29a5.14,5.14,0,0,0-4.84.34L15.72,20.6l-.52-3.66a3.51,3.51,0,0,0-2.42-2.86,3.41,3.41,0,0,0,1.43-1.81,3.48,3.48,0,1,0-5,1.92c-2.59.64-4.85,2.26-5.61,3.81C2.17,21,4.5,24.76,6,26a1.63,1.63,0,0,0,2.16.08,1.39,1.39,0,0,0,.47-1,1.87,1.87,0,0,0-.49-1.29c-.54-.6-1.67-2.61-1.32-3.66a.82.82,0,0,1,.36-.44l1.37,4.2a8,8,0,0,0,.62,1.41l-.2.44a8.81,8.81,0,0,0-.43,2.7v2a1.9,1.9,0,0,0,1.9,1.89h1.35a1.89,1.89,0,0,0,1.89-1.89V29a9,9,0,0,0,1.41.31l2.39.35a8,8,0,0,1,2.45.76l5.1,2.55a.64.64,0,0,0,.33.08.73.73,0,0,0,.25,0,.77.77,0,0,0,.43-.38l1.67-3.38a.73.73,0,0,0-.34-1,2.55,2.55,0,0,0-2.89.43l-3.1-2.21a9.53,9.53,0,0,0-2.52-1.29l-.2-.07.89-.77a3.67,3.67,0,0,1,3.58-.7l3,1a.76.76,0,0,0,.92-.38l1.67-3.38A.76.76,0,0,0,28.36,19.83ZM9.05,10.51a2,2,0,0,1,1-1.14,2,2,0,0,1,.87-.2,2.05,2.05,0,0,1,.64.11,2,2,0,1,1-2.51,1.23ZM12.2,28.34v2.1a.39.39,0,0,1-.39.39H10.46a.4.4,0,0,1-.4-.39v-2a7.31,7.31,0,0,1,.19-1.65,7.29,7.29,0,0,0,.58.53A6.43,6.43,0,0,0,12.2,28.34ZM26,23l-2.33-.8a5.2,5.2,0,0,0-5.06,1l-1.87,1.62a.76.76,0,0,0-.25.72.73.73,0,0,0,.5.56l1.44.49a8.25,8.25,0,0,1,2.13,1.09l3.68,2.62a.72.72,0,0,0,.6.12A.74.74,0,0,0,25.3,30a1.14,1.14,0,0,1,.62-.53l-.87,1.77L20.62,29a9.8,9.8,0,0,0-2.9-.91l-2.4-.34a7.41,7.41,0,0,1-2.14-.65,2,2,0,0,1-.25-.13,6.38,6.38,0,0,1-.71-.43L12,26.42a4.61,4.61,0,0,1-.4-.37c-.15-.14-.3-.3-.45-.47A6.51,6.51,0,0,1,10,23.46L8.39,18.53A.75.75,0,0,0,7.68,18H7.54a2.52,2.52,0,0,0-2.12,1.67c-.63,1.86,1,4.42,1.63,5.14l.1.12a.66.66,0,0,1-.18-.1c-1.24-1-3-4.06-2-6.2.77-1.58,3.88-3.36,6.74-3.25a2,2,0,0,1,2,1.75L14.4,22a.78.78,0,0,0,.43.58.75.75,0,0,0,.71-.05l2.88-1.8a3.66,3.66,0,0,1,3.44-.24L25.3,22a.75.75,0,0,0,1-.33,1.05,1.05,0,0,1,.62-.52Z"/></svg>