<svg id="Layer_1" data-name="Layer 1" xmlns="http://www.w3.org/2000/svg" viewBox="0 0 36 36"><defs><style>.cls-1{fill:#231f20;}</style></defs><title>sloper</title><path class="cls-1" d="M32.25,4H27.58a13.52,13.52,0,0,0-2.94.35,1.43,1.43,0,0,0-.13-.48,1.54,1.54,0,0,0-1-.76,17.63,17.63,0,0,0-4.07.11,38.32,38.32,0,0,0-5.31,2c-1,.61-3.81,4.9-4.17,5.91l-.55,1.64c-1,2.83-3,8.72-3.41,9.81C5.41,24,3.13,31.71,3,32a.75.75,0,0,0,.51.93.75.75,0,0,0,.93-.51c0-.08,2.36-8,2.92-9.36.47-1.14,2.4-6.84,3.44-9.9l.55-1.63a24.26,24.26,0,0,1,3.51-5.11A40.86,40.86,0,0,1,19.67,4.7a26.12,26.12,0,0,1,3.48-.22.94.94,0,0,1-.08.36,7.07,7.07,0,0,1-2.56,1,18,18,0,0,0-4.94,3.51,14.48,14.48,0,0,0-1.27,4.19,8.24,8.24,0,0,0,.77,3.67,1.9,1.9,0,0,0,1,1.09,1.31,1.31,0,0,0,1-.07c3.39-1.65,4.13-1.55,4.19-1.54a1.23,1.23,0,0,1,.43.32c-1.11.87-4.22,3.23-4.67,3.51s-5.52,4-6.08,4.39a.77.77,0,0,0-.3.5l-1,6.74a.75.75,0,0,0,1.49.22l1-6.43,2.73-2A14.07,14.07,0,0,0,27.58,32h4.67a.75.75,0,0,0,.75-.75V4.74A.75.75,0,0,0,32.25,4ZM31.5,30.51H27.58A12.58,12.58,0,0,1,16.11,23c.88-.64,1.6-1.15,1.78-1.26.55-.35,5-3.71,5.28-4a.93.93,0,0,0,.23-.87,2.78,2.78,0,0,0-1.58-1.65c-.58-.2-1.66-.17-5.25,1.56a1.31,1.31,0,0,1-.13-.23,6.72,6.72,0,0,1-.64-3,12.6,12.6,0,0,1,5.44-6.4A7.46,7.46,0,0,0,24,6a12.73,12.73,0,0,1,3.62-.53H31.5Z"/></svg>