<svg id="Layer_1" data-name="Layer 1" xmlns="http://www.w3.org/2000/svg" viewBox="0 0 36 36"><defs><style>.cls-1{fill:#231f20;}</style></defs><title>technical</title><circle class="cls-1" cx="12.43" cy="19.73" r="2.66"/><path class="cls-1" d="M21.55,21.2a.39.39,0,0,0,.31-.37V18.64a.4.4,0,0,0-.31-.38L20.34,18a.61.61,0,0,1-.41-.37L19.2,15.9a.57.57,0,0,1,0-.54l.69-1a.42.42,0,0,0-.05-.49l-1.55-1.55a.42.42,0,0,0-.49,0l-1,.69a.57.57,0,0,1-.54,0l-1.75-.73a.61.61,0,0,1-.37-.41l-.24-1.21a.4.4,0,0,0-.38-.31H11.33a.39.39,0,0,0-.37.31l-.25,1.21a.59.59,0,0,1-.36.41L8.6,13a.59.59,0,0,1-.55,0l-1-.69a.42.42,0,0,0-.49,0L5,13.84a.39.39,0,0,0,0,.49l.69,1a.6.6,0,0,1,0,.54l-.73,1.75a.63.63,0,0,1-.41.37l-1.21.24a.4.4,0,0,0-.31.38v2.19a.39.39,0,0,0,.31.37l1.21.25a.61.61,0,0,1,.41.36l.73,1.75a.63.63,0,0,1,0,.55l-.69,1a.39.39,0,0,0,0,.49l1.54,1.54a.39.39,0,0,0,.49,0l1-.69a.63.63,0,0,1,.55,0l1.75.73a.61.61,0,0,1,.36.41L11,28.85a.39.39,0,0,0,.37.31h2.19a.4.4,0,0,0,.38-.31l.24-1.21a.63.63,0,0,1,.37-.41l1.75-.73a.6.6,0,0,1,.54,0l1,.69a.39.39,0,0,0,.49,0l1.55-1.54a.42.42,0,0,0,.05-.49l-.69-1a.6.6,0,0,1,0-.55l.73-1.75a.59.59,0,0,1,.41-.36Zm-9.12,3.71a5.18,5.18,0,1,1,5.18-5.18A5.18,5.18,0,0,1,12.43,24.91Z"/><path class="cls-1" d="M32.29,16.06a.28.28,0,0,0,.28-.19L33,14.42a.3.3,0,0,0-.13-.31l-.76-.4a.44.44,0,0,1-.2-.32l-.14-1.3a.38.38,0,0,1,.13-.35l.65-.55a.31.31,0,0,0,.07-.34l-.73-1.32a.27.27,0,0,0-.31-.13l-.82.25a.41.41,0,0,1-.37-.08l-1-.82a.43.43,0,0,1-.16-.35l.08-.85a.29.29,0,0,0-.2-.28l-1.45-.42a.3.3,0,0,0-.31.13l-.39.76a.46.46,0,0,1-.33.2l-1.3.14A.4.4,0,0,1,25,8L24.4,7.3a.29.29,0,0,0-.34-.06L22.74,8a.27.27,0,0,0-.13.31l.26.82a.45.45,0,0,1-.09.37l-.82,1a.41.41,0,0,1-.34.16l-.85-.07a.26.26,0,0,0-.28.19l-.43,1.45a.3.3,0,0,0,.13.31l.76.4a.44.44,0,0,1,.2.32l.14,1.3a.42.42,0,0,1-.12.35l-.66.55a.29.29,0,0,0-.06.34l.72,1.32a.28.28,0,0,0,.32.13L22.3,17a.45.45,0,0,1,.37.09l1,.82a.41.41,0,0,1,.16.34l-.07.85a.27.27,0,0,0,.19.28l1.45.43a.3.3,0,0,0,.31-.13l.4-.76a.44.44,0,0,1,.32-.2l1.3-.14a.38.38,0,0,1,.35.13l.55.65a.29.29,0,0,0,.34.06l1.32-.72a.28.28,0,0,0,.13-.32l-.25-.81a.41.41,0,0,1,.08-.37l.82-1a.43.43,0,0,1,.35-.16Zm-6.77.69A3.58,3.58,0,1,1,30,14.32,3.58,3.58,0,0,1,25.52,16.75Z"/></svg>