<svg id="Layer_1" data-name="Layer 1" xmlns="http://www.w3.org/2000/svg" viewBox="0 0 36 36"><defs><style>.cls-1{fill:#231f20;}</style></defs><title>trad</title><path class="cls-1" d="M24.59,18.79c1.91,0,3.8.53,4.55,1.35a2.21,2.21,0,0,0,1.6.8,1.53,1.53,0,0,0,1.52-1.38A10.13,10.13,0,0,0,32.33,18a15,15,0,0,0-15-15c-2.33,0-3.16.69-3.26,1.76h0a8.48,8.48,0,0,0,1,3.5c1,2.24.29,5.26-.74,7.5a.67.67,0,0,1-.1.21c-.09.18-.17.37-.26.53A3.67,3.67,0,0,0,13.64,18a3.58,3.58,0,0,0,.42,1.66,3.25,3.25,0,0,0,.53.78l.05.07a4,4,0,0,0,.67.57,2,2,0,0,0,.32.17l.41.19a4,4,0,0,0,.49.15l.27,0a3.17,3.17,0,0,0,.53.05,4.21,4.21,0,0,0,3-1.51c.06-.06.15-.1.21-.15h0A6.46,6.46,0,0,1,24.59,18.79Zm5.93-.59a.83.83,0,1,1-.83.82A.83.83,0,0,1,30.52,18.2ZM26,10.37c2.21,0,3.61,2.57,3.61,4.79s-9,2.35-9,.13S23.79,10.37,26,10.37ZM17.33,19.7A1.72,1.72,0,1,1,19.05,18,1.72,1.72,0,0,1,17.33,19.7ZM17.12,5.31c1.18-.84,3.85-.17,4.69,1s0,2.9-1.17,3.75S15.94,6.15,17.12,5.31Z"/><path class="cls-1" d="M20.82,20.68a7.11,7.11,0,0,1-.68.63L17.33,31.38l-2.78-10A4.4,4.4,0,0,1,12.89,18a4.45,4.45,0,0,1,.24-1.34c-2.3.74-7,.3-7-1.22,0-2,1.26-4.36,3.28-4.36,1.63,0,3.83,1.62,4.62,3.3a11.13,11.13,0,0,0,.71-3.5.57.57,0,0,1-.45-.07c-1.08-.77-1.84-2.34-1.07-3.41a2.06,2.06,0,0,1,.47-.46h0A6,6,0,0,1,13.32,5,13.63,13.63,0,0,0,3.67,18a8.58,8.58,0,0,0,.07,1.44C4,20.83,5.5,21.15,6.57,20c.9-1,3.57-1.49,5.72-1.07l3.78,13.54a.75.75,0,0,0,.72.55h1.08a.77.77,0,0,0,.72-.55L22.07,20A3.49,3.49,0,0,0,20.82,20.68Zm-15.5-1A.76.76,0,1,1,6.07,19,.76.76,0,0,1,5.32,19.71Z"/></svg>