<svg id="Layer_1" data-name="Layer 1" xmlns="http://www.w3.org/2000/svg" viewBox="0 0 36 36"><defs><style>.cls-1{fill:#231f20;}</style></defs><title>tries_3</title><path class="cls-1" d="M6.8,33a8.21,8.21,0,0,1-3.38-.63,3.39,3.39,0,0,1,.78-2.12,11.27,11.27,0,0,0,2.44.32c1.38,0,1.79-.44,1.79-1.34S8.07,27.9,6.88,27.9H5.22a4.05,4.05,0,0,1,0-2.29H6.88c.93,0,1.22-.44,1.22-1.1s-.47-1.14-1.49-1.14a6.4,6.4,0,0,0-2.11.32,2.66,2.66,0,0,1-1-2.06A9.4,9.4,0,0,1,6.93,21c2.65,0,4.28,1.05,4.28,3.14A2.61,2.61,0,0,1,9.65,26.7a2.88,2.88,0,0,1,1.94,2.94C11.59,31.78,10.21,33,6.8,33Z"/><path class="cls-1" d="M12.19,9.46A.76.76,0,0,0,13,8.7V6.23a.76.76,0,1,0-1.52,0V8.7A.76.76,0,0,0,12.19,9.46Z"/><path class="cls-1" d="M25.37,6.23a.76.76,0,0,0,.77-.76V3.76a.77.77,0,0,0-1.53,0V5.47A.76.76,0,0,0,25.37,6.23Z"/><path class="cls-1" d="M25.37,14.2a.76.76,0,0,0,.77-.76V7.31a.77.77,0,0,0-1.53,0v6.13A.76.76,0,0,0,25.37,14.2Z"/><path class="cls-1" d="M29.15,18.18a.76.76,0,0,0,.77-.76V14.23a.77.77,0,1,0-1.53,0v3.19A.76.76,0,0,0,29.15,18.18Z"/><path class="cls-1" d="M29.15,12.84a.76.76,0,0,0,.77-.77V7.31a.77.77,0,0,0-1.53,0v4.76A.76.76,0,0,0,29.15,12.84Z"/><path class="cls-1" d="M25.9,22l2.55,2a.77.77,0,0,0,1,0l2.87-2.89a.71.71,0,0,0,.22-.53.76.76,0,0,0-.22-.54,2.71,2.71,0,0,0-3.2-.48l-1.45-1.38a5.86,5.86,0,0,0-8.11.06L18.34,16a13.32,13.32,0,0,0,1.5-5.64A13.68,13.68,0,0,0,17.93,3.9,1.65,1.65,0,0,0,17,3.07a1.54,1.54,0,0,0-1.21.12,1.71,1.71,0,0,0-.7,2.26s2.08,4.09-.65,6.83a9,9,0,0,1-1.54,1.2l-.54.36a3.36,3.36,0,0,0,.13-.89,3.63,3.63,0,1,0-3.64,3.64h0a4,4,0,0,0,.78-.09A15.18,15.18,0,0,0,8,19.11a.77.77,0,0,0,.37,1,.76.76,0,0,0,1-.36,12.86,12.86,0,0,1,2.42-3.51,10.68,10.68,0,0,1,1.9-1.51,10.36,10.36,0,0,0,1.78-1.4c3.5-3.51,1-8.4,1-8.52s0-.22,0-.28l-.35-.68.48.77a12.36,12.36,0,0,1,1.72,5.68,12,12,0,0,1-1.52,5.31.73.73,0,0,0,0,.74l2,3.44a.76.76,0,0,0,.56.38A.75.75,0,0,0,20,20l.64-.65a4.33,4.33,0,0,1,6.05-.09L28.55,21a.77.77,0,0,0,1.05,0,1.28,1.28,0,0,1,.95-.33l-1.66,1.67-2-1.62a4.16,4.16,0,0,0-5.57.33l-1.62,1.63a.76.76,0,0,0-.1.94.76.76,0,0,0,.89.32A4.58,4.58,0,0,1,26,26.88l.9,2.46a.77.77,0,0,0,.94.46,1.26,1.26,0,0,1,1,.13l-2.22.77-1.12-2.36A4.62,4.62,0,0,0,22.67,26a3,3,0,0,0-2.48.32A2.75,2.75,0,0,1,16.64,26L13.76,23a.76.76,0,1,0-1.09,1.07L15.56,27a4.26,4.26,0,0,0,5.49.5,1.46,1.46,0,0,1,1.21-.11A3.1,3.1,0,0,1,24.14,29l1.4,3a.76.76,0,0,0,.7.45.67.67,0,0,0,.24,0L30.34,31a.76.76,0,0,0,.47-1,2.66,2.66,0,0,0-2.66-1.84l-.69-1.87a6.3,6.3,0,0,0-5.22-4.08l.12-.12A2.64,2.64,0,0,1,25.9,22Zm-17-6.89h0a2.11,2.11,0,0,1-1.49-3.59,2.06,2.06,0,0,1,1.49-.62A2.1,2.1,0,0,1,11,13a2.13,2.13,0,0,1-.61,1.49A2.1,2.1,0,0,1,8.85,15.06Z"/></svg>