<svg id="Layer_1" data-name="Layer 1" xmlns="http://www.w3.org/2000/svg" viewBox="0 0 36 36"><defs><style>.cls-1{fill:#231f20;}</style></defs><title>tries_1</title><path class="cls-1" d="M11.59,9.35a.75.75,0,0,0,.75-.75V3.75a.75.75,0,0,0-1.5,0V8.6A.74.74,0,0,0,11.59,9.35Z"/><path class="cls-1" d="M24.55,6.17a.74.74,0,0,0,.75-.75V3.75a.75.75,0,0,0-1.5,0V5.42A.75.75,0,0,0,24.55,6.17Z"/><path class="cls-1" d="M24.55,14a.75.75,0,0,0,.75-.75v-6a.75.75,0,1,0-1.5,0v6A.76.76,0,0,0,24.55,14Z"/><path class="cls-1" d="M28.27,17.93a.74.74,0,0,0,.75-.75V14a.75.75,0,0,0-1.5,0v3.14A.75.75,0,0,0,28.27,17.93Z"/><path class="cls-1" d="M28.27,12.67a.74.74,0,0,0,.75-.75V7.24a.75.75,0,1,0-1.5,0v4.68A.75.75,0,0,0,28.27,12.67Z"/><path class="cls-1" d="M25.07,21.64l2.51,2a.77.77,0,0,0,1,0l2.83-2.84a.75.75,0,0,0,.22-.53.72.72,0,0,0-.23-.53,2.68,2.68,0,0,0-3.15-.47l-1.42-1.36a5.76,5.76,0,0,0-8,.06l-1.24-2.17a13,13,0,0,0,1.48-5.54,13.55,13.55,0,0,0-1.87-6.34,1.73,1.73,0,0,0-.93-.81,1.49,1.49,0,0,0-1.19.12,1.68,1.68,0,0,0-.69,2.22s2,4-.64,6.71a8.77,8.77,0,0,1-1.52,1.19l-.52.35a3.59,3.59,0,0,0,.12-.88,3.58,3.58,0,0,0-7.15,0A3.57,3.57,0,0,0,8.3,16.36h0a3.31,3.31,0,0,0,.77-.09A14.79,14.79,0,0,0,7.5,18.85a.75.75,0,0,0,.36,1,.73.73,0,0,0,1-.36,12.23,12.23,0,0,1,2.38-3.44,10.39,10.39,0,0,1,1.87-1.49,10.16,10.16,0,0,0,1.75-1.38c3.45-3.46,1-8.26.94-8.38a.42.42,0,0,1,0-.27l-.34-.67.48.75a12.37,12.37,0,0,1,1.68,5.59,11.82,11.82,0,0,1-1.49,5.22.73.73,0,0,0,0,.73l1.93,3.38a.75.75,0,0,0,1.18.16l.63-.64A4.26,4.26,0,0,1,25.82,19l1.86,1.77a.75.75,0,0,0,1,0,1.27,1.27,0,0,1,.94-.32L28,22.06l-2-1.6a4.1,4.1,0,0,0-5.48.33l-1.58,1.6a.76.76,0,0,0-.11.93.76.76,0,0,0,.88.31,4.5,4.5,0,0,1,5.49,2.86l.89,2.41a.74.74,0,0,0,.91.46,1.26,1.26,0,0,1,1,.13l-2.2.75L24.7,27.92a4.58,4.58,0,0,0-2.8-2.35,2.92,2.92,0,0,0-2.45.32A2.7,2.7,0,0,1,16,25.58l-2.84-2.87a.75.75,0,0,0-1.06,0,.75.75,0,0,0,0,1.06l2.84,2.87a4.2,4.2,0,0,0,5.4.5A1.41,1.41,0,0,1,21.49,27a3,3,0,0,1,1.85,1.54l1.38,2.91a.74.74,0,0,0,.68.45,1,1,0,0,0,.24,0l3.8-1.3a.74.74,0,0,0,.46-.95,2.64,2.64,0,0,0-2.62-1.82L26.61,26a6.21,6.21,0,0,0-5.14-4l.12-.12A2.61,2.61,0,0,1,25.07,21.64ZM8.3,14.86h0a2.06,2.06,0,0,1-1.47-3.53,2,2,0,0,1,1.47-.61,2.07,2.07,0,0,1,2.07,2.07,2,2,0,0,1-.61,1.46A2.06,2.06,0,0,1,8.3,14.86Z"/><path class="cls-1" d="M7.22,21.67a4.76,4.76,0,0,1-2.85,2.11,2.8,2.8,0,0,0,.85,2.39,5.06,5.06,0,0,0,2-.94c0,.33,0,.7,0,1.1v6.52A7.46,7.46,0,0,0,8.81,33a7,7,0,0,0,1.55-.15V21.67a7.46,7.46,0,0,0-1.57-.15A7.35,7.35,0,0,0,7.22,21.67Z"/></svg>