<svg id="Layer_1" data-name="Layer 1" xmlns="http://www.w3.org/2000/svg" viewBox="0 0 36 36"><defs><style>.cls-1{fill:#231f20;}</style></defs><title>tries_2</title><path class="cls-1" d="M3.41,22.16a8.33,8.33,0,0,1,3.72-.81c2.61,0,4.17,1.16,4.17,3.4,0,1.87-1,2.85-2.9,4-.85.49-1.87.74-2,1.49a.64.64,0,0,0,0,.27H11a3.38,3.38,0,0,1,.23,1.27A3.2,3.2,0,0,1,11,33H3.33a5.15,5.15,0,0,1-.19-1.35c0-2.46,1.67-3.6,3.19-4.61s1.79-1.48,1.79-2.23-.53-1-1.5-1a7,7,0,0,0-2.36.48A2.5,2.5,0,0,1,3.41,22.16Z"/><path class="cls-1" d="M12.8,9.35a.75.75,0,0,0,.75-.75V6.18a.75.75,0,0,0-1.5,0V8.6A.74.74,0,0,0,12.8,9.35Z"/><path class="cls-1" d="M25.77,6.18a.76.76,0,0,0,.75-.75V3.75a.75.75,0,0,0-1.5,0V5.43A.75.75,0,0,0,25.77,6.18Z"/><path class="cls-1" d="M25.77,14a.76.76,0,0,0,.75-.75v-6a.75.75,0,1,0-1.5,0v6A.75.75,0,0,0,25.77,14Z"/><path class="cls-1" d="M29.49,17.93a.75.75,0,0,0,.75-.75V14a.75.75,0,0,0-1.5,0v3.14A.74.74,0,0,0,29.49,17.93Z"/><path class="cls-1" d="M29.49,12.67a.75.75,0,0,0,.75-.75V7.24a.75.75,0,1,0-1.5,0v4.68A.74.74,0,0,0,29.49,12.67Z"/><path class="cls-1" d="M26.28,21.64l2.51,2a.77.77,0,0,0,1,0l2.83-2.84a.75.75,0,0,0,0-1.06,2.68,2.68,0,0,0-3.15-.47l-1.42-1.36a5.77,5.77,0,0,0-8,.06l-1.24-2.17a13,13,0,0,0,1.49-5.54,13.63,13.63,0,0,0-1.88-6.34,1.69,1.69,0,0,0-.93-.81,1.49,1.49,0,0,0-1.19.12,1.68,1.68,0,0,0-.69,2.22s2,4-.64,6.71a8.73,8.73,0,0,1-1.51,1.19l-.53.35a3.59,3.59,0,0,0,.12-.88A3.52,3.52,0,0,0,12,10.26a3.57,3.57,0,0,0-5,0,3.47,3.47,0,0,0-1,2.53,3.57,3.57,0,0,0,3.57,3.56h0a3.22,3.22,0,0,0,.76-.09,14.79,14.79,0,0,0-1.57,2.58.75.75,0,1,0,1.36.64,12.42,12.42,0,0,1,2.37-3.44,10.41,10.41,0,0,1,1.88-1.49,10,10,0,0,0,1.74-1.38c3.45-3.46,1-8.26,1-8.38s-.05-.22,0-.27l-.34-.67.47.75a12.19,12.19,0,0,1,1.69,5.59,11.71,11.71,0,0,1-1.5,5.22.76.76,0,0,0,0,.73l1.93,3.38a.73.73,0,0,0,.56.37.78.78,0,0,0,.63-.21l.62-.64A4.26,4.26,0,0,1,27,19l1.87,1.77a.73.73,0,0,0,1,0,1.3,1.3,0,0,1,.94-.32l-1.64,1.64-2-1.6a4.1,4.1,0,0,0-5.48.33l-1.59,1.6a.75.75,0,0,0,.77,1.24,4.5,4.5,0,0,1,5.49,2.86l.89,2.41a.75.75,0,0,0,.92.46,1.23,1.23,0,0,1,1,.13L27,30.24l-1.1-2.32a4.53,4.53,0,0,0-2.8-2.35,2.89,2.89,0,0,0-2.44.32,2.72,2.72,0,0,1-3.49-.31l-2.84-2.87a.75.75,0,0,0-1.06,0,.75.75,0,0,0,0,1.06l2.84,2.87a4.2,4.2,0,0,0,5.4.5,1.43,1.43,0,0,1,1.2-.11,3.05,3.05,0,0,1,1.85,1.54l1.37,2.91a.75.75,0,0,0,.68.45,1,1,0,0,0,.25,0l3.79-1.3a.76.76,0,0,0,.47-.95,2.64,2.64,0,0,0-2.62-1.82L27.82,26a6.21,6.21,0,0,0-5.13-4l.11-.12A2.61,2.61,0,0,1,26.28,21.64ZM9.51,14.86h0a2,2,0,0,1-1.46-.6,2,2,0,0,1-.61-1.47,2.07,2.07,0,1,1,2.07,2.07Z"/></svg>