<svg id="Layer_1" data-name="Layer 1" xmlns="http://www.w3.org/2000/svg" viewBox="0 0 36 36"><defs><style>.cls-1{fill:#231f20;}</style></defs><title>twitter</title><path class="cls-1" d="M13.84,27.12A13,13,0,0,0,26.94,14c0-.2,0-.4,0-.6A9.25,9.25,0,0,0,29.22,11a9.29,9.29,0,0,1-2.64.72,4.6,4.6,0,0,0,2-2.54,9.2,9.2,0,0,1-2.92,1.11,4.61,4.61,0,0,0-8,3.15,4.51,4.51,0,0,0,.12,1A13,13,0,0,1,8.34,9.72,4.55,4.55,0,0,0,7.71,12a4.63,4.63,0,0,0,2.05,3.83,4.47,4.47,0,0,1-2.08-.58v.06a4.6,4.6,0,0,0,3.69,4.52,4.78,4.78,0,0,1-1.21.16A4.94,4.94,0,0,1,9.29,20a4.62,4.62,0,0,0,4.3,3.2,9.25,9.25,0,0,1-5.72,2,7.88,7.88,0,0,1-1.09-.07,13,13,0,0,0,7.06,2.07"/></svg>