<svg id="Layer_1" data-name="Layer 1" xmlns="http://www.w3.org/2000/svg" viewBox="0 0 36 36"><defs><style>.cls-1{fill:#231f20;}</style></defs><title>website</title><path class="cls-1" d="M32.25,28.94h-1.4V16.06A1.89,1.89,0,0,0,29,14.18h-1.8a9,9,0,0,0,.18-1.81,9.23,9.23,0,0,0-1.47-5h0A9.32,9.32,0,0,0,18.07,3h-.14a9.33,9.33,0,0,0-7.79,4.32h0a9.23,9.23,0,0,0-1.47,5,9,9,0,0,0,.18,1.81H7a1.88,1.88,0,0,0-1.88,1.88V28.94H3.75a.76.76,0,0,0-.75.75A3.28,3.28,0,0,0,6.28,33H29.72A3.28,3.28,0,0,0,33,29.69.76.76,0,0,0,32.25,28.94ZM11.28,8.4h2.09a11.21,11.21,0,0,0-.64,3.22H10.24A7.69,7.69,0,0,1,11.28,8.4Zm14.48,3.22H23.27a11.21,11.21,0,0,0-.64-3.22h2.09A7.69,7.69,0,0,1,25.76,11.62Zm-1,4.71H22.64a11.57,11.57,0,0,0,.63-3.21h2.49A7.69,7.69,0,0,1,24.72,16.33Zm-7.47,1.5v1.66a8.63,8.63,0,0,1-1.46-1.66ZM15,16.33a9.71,9.71,0,0,1-.75-3.21h3v3.21Zm3.77,3.17V17.83h1.47A8.44,8.44,0,0,1,18.75,19.5Zm0-3.17V13.12h3A9.72,9.72,0,0,1,21,16.33Zm3-4.71h-3V8.4H21A9.53,9.53,0,0,1,21.77,11.62Zm-3-4.72V5.24A9,9,0,0,1,20.21,6.9Zm-1.5-1.66V6.9H15.79A9,9,0,0,1,17.25,5.24Zm0,3.16v3.22h-3A9.78,9.78,0,0,1,15,8.4Zm-4.52,4.72a11.57,11.57,0,0,0,.63,3.21H11.28a7.69,7.69,0,0,1-1-3.21ZM14,17.83a10.29,10.29,0,0,0,1.31,1.88,7.77,7.77,0,0,1-2.94-1.88Zm7.94,0H23.6a7.77,7.77,0,0,1-2.94,1.88A9.82,9.82,0,0,0,22,17.83ZM23.6,6.9H22A10.28,10.28,0,0,0,20.63,5,7.9,7.9,0,0,1,23.6,6.9ZM15.37,5A10.28,10.28,0,0,0,14,6.9H12.4A7.9,7.9,0,0,1,15.37,5Zm-8.71,11A.38.38,0,0,1,7,15.68H9.28a9.22,9.22,0,0,0,.85,1.69v0A9.34,9.34,0,0,0,18,21.71h0a9.32,9.32,0,0,0,7.86-4.33h0a9.22,9.22,0,0,0,.85-1.69H29a.39.39,0,0,1,.39.38V28.94H6.66ZM29.72,31.47H6.28a1.77,1.77,0,0,1-1.61-1H31.33A1.77,1.77,0,0,1,29.72,31.47Z"/></svg>