<svg id="Layer_1" data-name="Layer 1" xmlns="http://www.w3.org/2000/svg" viewBox="0 0 36 36"><defs><style>.cls-1{fill:#231f20;}</style></defs><title>weight</title><path class="cls-1" d="M32,10a3.17,3.17,0,0,0-2.31-1H26.33A8.77,8.77,0,0,0,9.67,9H6.32a3.16,3.16,0,0,0-3.16,3.36L4.24,30a3.18,3.18,0,0,0,3.17,3H28.6a3.17,3.17,0,0,0,3.16-3l1.08-17.63A3.21,3.21,0,0,0,32,10ZM18,4.5A7.26,7.26,0,0,1,18.91,19l1.36-7.72a.75.75,0,0,0-.61-.87.74.74,0,0,0-.86.61l-1.42,8A7.26,7.26,0,0,1,18,4.5ZM30.26,29.93A1.67,1.67,0,0,1,28.6,31.5H7.41a1.67,1.67,0,0,1-1.67-1.57L4.66,12.3a1.68,1.68,0,0,1,1.66-1.77h3a8.55,8.55,0,0,0-.1,1.25A8.78,8.78,0,0,0,18,20.55h0a8.78,8.78,0,0,0,8.78-8.77,8.55,8.55,0,0,0-.1-1.25h3a1.66,1.66,0,0,1,1.66,1.77Z"/><path class="cls-1" d="M18,9.29a.75.75,0,0,0,.75-.75v-2a.75.75,0,1,0-1.5,0v2A.75.75,0,0,0,18,9.29Z"/><path class="cls-1" d="M16,9.46h.14a.74.74,0,0,0,.6-.87l-.24-1.36a.75.75,0,1,0-1.47.26l.24,1.36A.74.74,0,0,0,16,9.46Z"/><path class="cls-1" d="M13.44,9.48a.76.76,0,0,0,.71.49.73.73,0,0,0,.25,0,.74.74,0,0,0,.45-1l-.32-.88a.74.74,0,0,0-1-.45.75.75,0,0,0-.45,1Z"/><path class="cls-1" d="M13,9.68l-.16-.27a.75.75,0,1,0-1.3.74l.16.28a.75.75,0,0,0,.65.37.69.69,0,0,0,.37-.1A.74.74,0,0,0,13,9.68Z"/><path class="cls-1" d="M19.83,9.45H20a.74.74,0,0,0,.73-.62l.24-1.36a.75.75,0,1,0-1.47-.26l-.24,1.36A.75.75,0,0,0,19.83,9.45Z"/><path class="cls-1" d="M21.6,9.93a.73.73,0,0,0,.25,0,.77.77,0,0,0,.71-.49l.32-.88a.75.75,0,1,0-1.41-.51L21.15,9A.74.74,0,0,0,21.6,9.93Z"/><path class="cls-1" d="M23.25,10.7a.76.76,0,0,0,1-.27l.06-.1a.71.71,0,0,0-.3-1A.81.81,0,0,0,23,9.68.75.75,0,0,0,23.25,10.7Z"/></svg>